Land_normalized_Motion_pl08
version=1
nRows=10
nColumns=43
inDegrees=yes
endheader
time		pelvis_tilt		pelvis_list		pelvis_rotation		pelvis_tx		pelvis_ty		pelvis_tz		hip_flexion_r		hip_adduction_r		hip_rotation_r		knee_angle_r		ankle_angle_r		subtalar_angle_r		mtp_angle_r		hip_flexion_l		hip_adduction_l		hip_rotation_l		knee_angle_l		ankle_angle_l		subtalar_angle_l		mtp_angle_l		lumbar_extension		lumbar_bending		lumbar_rotation		neck_flexion		neck_lateral_bending		neck_rotation		arm_flex_r		arm_add_r		arm_rot_r		elbow_flex_r		pro_sup_r		wrist_flex_r		wrist_dev_r		hand_finger_flex_r		arm_flex_l		arm_add_l		arm_rot_l		elbow_flex_l		pro_sup_l		wrist_flex_l		wrist_dev_l		hand_finger_flex_l		
1.817500		-2.348751		16.977065		93.655319		-0.010178		1.015445		0.540750		9.828160		-5.629661		-14.261836		-22.487758		-28.041714		-3.425790		19.209144		11.772553		-1.627186		-8.746238		-25.765834		-23.315384		-10.815428		34.561123		-41.767957		-4.144082		-7.072097		-37.496265		2.984262		4.106434		-66.559727		-16.706859		-33.116156		75.493732		90.056033		-17.806444		1.272204		45.079262		-68.111822		-18.723567		-34.143462		74.810687		106.556559		-20.902267		6.576666		90.000210		
1.820227		-2.369670		16.758342		93.859273		-0.010484		1.003333		0.537251		10.962677		-5.781722		-13.619579		-24.527574		-28.141650		-3.982664		18.899015		13.068925		-1.564422		-8.169359		-27.932281		-22.950072		-11.067900		34.298814		-41.738180		-4.042266		-7.197027		-36.872140		2.938121		3.893751		-65.646325		-16.858132		-33.064692		75.623220		90.093533		-17.886561		1.412724		44.627771		-67.142988		-19.213129		-34.032962		74.586133		106.774363		-20.460008		6.594093		90.000210		
1.822955		-2.473612		17.222722		93.986764		-0.010896		0.992500		0.533601		11.205362		-6.018607		-13.281879		-26.262276		-28.515345		-4.023932		18.839862		13.447449		-1.491181		-7.983830		-29.844459		-22.859090		-11.101240		34.284424		-42.475621		-4.017683		-7.338955		-36.016832		2.992653		3.899249		-64.614484		-17.187303		-32.928149		75.713088		90.144615		-17.895714		1.424349		44.499687		-66.174090		-19.680816		-33.776262		74.444141		106.902459		-20.384927		6.614005		90.000210		
1.825682		-2.524372		17.381860		94.152359		-0.011328		0.980900		0.530098		11.885663		-6.178793		-12.754379		-28.144174		-28.750270		-4.258551		18.812890		14.285726		-1.410234		-7.610698		-31.945291		-22.769061		-11.148346		34.197426		-42.881251		-3.920216		-7.447049		-35.194320		2.986890		3.755747		-63.616847		-17.461679		-32.811857		75.874588		90.230420		-17.942078		1.454390		44.205202		-65.127797		-20.201339		-33.510016		74.287028		107.205191		-20.284243		6.675766		90.000210		
1.828409		-2.481518		17.170096		94.323861		-0.011692		0.968451		0.526718		13.074805		-6.222432		-12.066683		-30.156424		-28.791316		-4.615226		18.828700		15.642915		-1.371190		-7.108116		-34.183560		-22.747574		-11.200740		33.991733		-42.874093		-3.748848		-7.483521		-34.451659		2.929075		3.516848		-62.633693		-17.714698		-32.665570		76.064889		90.348505		-17.985819		1.511048		43.698164		-64.015238		-20.793216		-33.225368		74.094526		107.720903		-20.141191		6.798996		90.000210		
1.831136		-2.493984		17.595852		94.446194		-0.012032		0.957257		0.523243		13.423904		-6.262345		-11.499770		-31.895837		-28.474283		-4.611302		18.960820		16.140518		-1.338864		-6.820982		-36.117785		-22.888696		-11.097241		33.983512		-43.601089		-3.637418		-7.571761		-33.435802		2.986106		3.512395		-61.513965		-18.186439		-32.357032		76.228193		90.413473		-17.964481		1.507409		43.548552		-62.921680		-21.382490		-32.832032		73.952729		107.940939		-20.081983		6.848646		90.000210		
1.833864		-2.442406		17.473598		94.562113		-0.012318		0.944753		0.519853		14.540903		-6.236565		-10.670917		-34.002677		-27.119507		-4.149884		19.456687		17.379660		-1.303488		-6.412963		-38.259796		-22.763704		-10.871189		33.993334		-43.705603		-3.485734		-7.534966		-32.566211		2.945164		3.292707		-60.511374		-18.522955		-32.099678		76.466764		90.427901		-18.080781		1.491069		43.108110		-61.731081		-22.035430		-32.455431		73.816938		108.524599		-20.024519		7.032477		90.000210		
1.836591		-2.352032		17.379355		94.660773		-0.012491		0.932161		0.516522		15.644748		-6.107756		-9.777144		-36.212479		-24.919648		-3.657416		20.122328		18.611482		-1.293699		-5.973084		-40.419714		-22.406363		-10.636149		34.053085		-43.841076		-3.315638		-7.473611		-31.678598		2.888712		3.114869		-59.497136		-18.880895		-31.826184		76.766348		90.394895		-18.182035		1.453041		42.660232		-60.555456		-22.683621		-32.104359		73.769029		109.107170		-19.953903		7.223613		90.000210		
1.839318		-2.269589		17.395241		94.760988		-0.012832		0.919851		0.513158		16.568285		-5.978177		-8.920456		-38.449164		-21.853727		-2.725823		20.861118		19.654172		-1.247787		-5.544516		-42.476458		-21.532936		-10.233730		34.251384		-44.111145		-3.132877		-7.425844		-30.721056		2.895738		2.946215		-58.400773		-19.371701		-31.427840		76.992584		90.302598		-18.284205		1.431655		42.301449		-59.277225		-23.358922		-31.638230		73.638952		109.625640		-19.841813		7.405301		90.000210		
1.842045		-2.186162		17.423533		94.873459		-0.013135		0.907524		0.509835		17.466096		-5.822904		-8.103138		-40.809705		-17.965929		-1.662937		21.542773		20.675454		-1.174492		-5.078220		-44.582987		-20.008032		-9.796671		34.531256		-44.400844		-2.946206		-7.386196		-29.741987		2.891042		2.771291		-57.268841		-19.900185		-30.961563		77.233171		90.164177		-18.417961		1.408094		41.982277		-57.966920		-24.065438		-31.144808		73.515738		110.143581		-19.709419		7.581992		90.000210		
